<?xml version="1.0" encoding="UTF-8" standalone="no"?>
<svg
   xmlns:dc="http://purl.org/dc/elements/1.1/"
   xmlns:cc="http://creativecommons.org/ns#"
   xmlns:rdf="http://www.w3.org/1999/02/22-rdf-syntax-ns#"
   xmlns:svg="http://www.w3.org/2000/svg"
   xmlns="http://www.w3.org/2000/svg"
   viewBox="0 0 66.666664 66.666664"
   height="66.666664"
   width="66.666664"
   xml:space="preserve"
   id="svg2"
   version="1.1"><metadata
     id="metadata8"><rdf:RDF><cc:Work
         rdf:about=""><dc:format>image/svg+xml</dc:format><dc:type
           rdf:resource="http://purl.org/dc/dcmitype/StillImage" /></cc:Work></rdf:RDF></metadata><defs
     id="defs6"><linearGradient
       id="linearGradient32"
       spreadMethod="pad"
       gradientTransform="matrix(50,0,0,-50,0,25)"
       gradientUnits="userSpaceOnUse"
       y2="0"
       x2="1"
       y1="0"
       x1="0"><stop
         id="stop24"
         offset="0"
         style="stop-opacity:1;stop-color:#ffffff" /><stop
         id="stop26"
         offset="0.12230391"
         style="stop-opacity:1;stop-color:#ffffff" /><stop
         id="stop28"
         offset="0.484976"
         style="stop-opacity:1;stop-color:#cccccc" /><stop
         id="stop30"
         offset="1"
         style="stop-opacity:1;stop-color:#cccccc" /></linearGradient><linearGradient
       id="linearGradient60"
       spreadMethod="pad"
       gradientTransform="matrix(42.230957,0,0,-42.230957,2.8686523,24.59082)"
       gradientUnits="userSpaceOnUse"
       y2="0"
       x2="1"
       y1="0"
       x1="0"><stop
         id="stop48"
         offset="0"
         style="stop-opacity:1;stop-color:#29abe2" /><stop
         id="stop50"
         offset="0.16484811"
         style="stop-opacity:1;stop-color:#29abe2" /><stop
         id="stop52"
         offset="0.653678"
         style="stop-opacity:1;stop-color:#1e9cd7" /><stop
         id="stop54"
         offset="0.865168"
         style="stop-opacity:1;stop-color:#0075be" /><stop
         id="stop56"
         offset="0.994382"
         style="stop-opacity:1;stop-color:#005b97" /><stop
         id="stop58"
         offset="1"
         style="stop-opacity:1;stop-color:#005b97" /></linearGradient></defs><g
     transform="matrix(1.3333333,0,0,-1.3333333,0,66.666667)"
     id="g10"><g
       id="g12"><g
         id="g14"><g
           id="g20"><g
             id="g22"><path
               id="path34"
               style="fill:url(#linearGradient32);stroke:none"
               d="M 2.931,49 C 1.836,49 0,48.577 0,47.517 v 0 V 3.533 C 0,2.471 1.836,1 2.931,1 V 1 H 48.327 C 49.423,1 50,2.471 50,3.533 v 0 43.984 C 50,48.577 49.423,49 48.327,49 v 0 z" /></g></g></g></g><g
       id="g36"><g
         id="g38"><g
           id="g44"><g
             id="g46"><path
               id="path62"
               style="fill:url(#linearGradient60);stroke:none"
               d="m 12.821,40.284 c -0.35,-0.985 -0.491,-2.076 -0.473,-3.247 v 0 H 9.772 v 0.481 H 6.778 v -2.963 h 2.994 v 0.482 h 13.641 v 2.286 h 6.641 v -6.572 h -6.641 v 2.286 H 12.88 c 0.164,-0.741 0.363,-1.499 0.582,-2.267 v 0 H 5.863 v 0.482 H 2.868 v -2.963 h 2.995 v 0.48 h 26.371 v 2.287 h 6.642 v -6.572 h -6.642 v 2.287 H 14.73 c 0.255,-0.755 0.514,-1.512 0.772,-2.267 v 0 h -4.641 v 0.483 H 7.865 v -2.966 h 2.996 v 0.481 H 21.33 v 2.289 h 6.641 V 18.216 H 21.33 v 2.289 h -4.539 c 0.711,-2.401 1.234,-4.713 1.288,-6.8 v 0 c 0.217,-8.382 1.848,-10.424 3.15,-8.437 v 0 c 1.303,1.988 1.467,1.512 3.529,6.078 v 0 c 2.598,5.751 5.38,5.642 7.927,0 v 0 c 2.063,-4.566 2.227,-4.09 3.531,-6.078 v 0 c 1.303,-1.987 2.932,0.055 3.149,8.437 v 0 c 0.212,8.197 7.664,19.865 5.257,26.579 v 0 c -1.016,2.842 -3.515,3.898 -5.924,4.104 v 0 c -3.033,0.259 -5.157,-1.053 -7.72,-2.365 v 0 c -2.499,-1.28 -5.415,-2.56 -9.997,-2.382 v 0 c 2.949,0.46 5.78,1.431 8.369,2.857 v 0 c -2.037,-0.14 -3.838,0.362 -5.764,1.22 v 0 c -1.186,0.53 -2.71,0.9 -4.253,0.9 v 0 c -2.646,10e-4 -5.349,-1.088 -6.512,-4.334 m 12.432,-7.713 h 2.96 v 2.931 h -2.96 z m 8.822,-6.266 h 2.959 v 2.93 H 34.075 Z M 23.17,20.039 h 2.961 v 2.929 H 23.17 Z" /></g></g></g></g></g></svg>