<?xml version="1.0" encoding="UTF-8" standalone="no"?>
<svg
   xmlns:dc="http://purl.org/dc/elements/1.1/"
   xmlns:cc="http://creativecommons.org/ns#"
   xmlns:rdf="http://www.w3.org/1999/02/22-rdf-syntax-ns#"
   xmlns:svg="http://www.w3.org/2000/svg"
   xmlns="http://www.w3.org/2000/svg"
   viewBox="0 0 266.66666 266.66666"
   height="266.66666"
   width="266.66666"
   xml:space="preserve"
   id="svg2"
   version="1.1"><metadata
     id="metadata8"><rdf:RDF><cc:Work
         rdf:about=""><dc:format>image/svg+xml</dc:format><dc:type
           rdf:resource="http://purl.org/dc/dcmitype/StillImage" /></cc:Work></rdf:RDF></metadata><defs
     id="defs6"><linearGradient
       id="linearGradient36"
       spreadMethod="pad"
       gradientTransform="matrix(196.60352,0,0,-196.60352,2.2851563,100.04199)"
       gradientUnits="userSpaceOnUse"
       y2="0"
       x2="1"
       y1="0"
       x1="0"><stop
         id="stop24"
         offset="0"
         style="stop-opacity:1;stop-color:#29abe2" /><stop
         id="stop26"
         offset="0.16484811"
         style="stop-opacity:1;stop-color:#29abe2" /><stop
         id="stop28"
         offset="0.653678"
         style="stop-opacity:1;stop-color:#1e9cd7" /><stop
         id="stop30"
         offset="0.865168"
         style="stop-opacity:1;stop-color:#0075be" /><stop
         id="stop32"
         offset="0.994382"
         style="stop-opacity:1;stop-color:#005b97" /><stop
         id="stop34"
         offset="1"
         style="stop-opacity:1;stop-color:#005b97" /></linearGradient></defs><g
     transform="matrix(1.3333333,0,0,-1.3333333,0,266.66667)"
     id="g10"><g
       id="g12"><g
         id="g14"><g
           id="g20"><g
             id="g22"><path
               id="path38"
               style="fill:url(#linearGradient36);stroke:none"
               d="m 48.622,176.9 c -1.634,-4.823 -2.291,-10.173 -2.205,-15.907 v 0 H 34.422 v 2.359 H 20.484 v -14.514 h 13.938 v 2.361 h 63.502 v 11.196 h 30.92 v -32.188 h -30.92 v 11.197 H 48.893 c 0.765,-3.629 1.692,-7.339 2.71,-11.101 v 0 h -35.38 v 2.36 H 2.285 V 118.15 h 13.938 v 2.351 h 122.768 v 11.206 h 30.925 V 99.518 h -30.925 v 11.198 H 57.508 c 1.188,-3.693 2.392,-7.4 3.588,-11.101 v 0 H 39.493 v 2.36 H 25.545 V 87.453 h 13.948 v 2.356 h 48.738 v 11.209 h 30.916 V 68.82 H 88.231 V 80.027 H 67.1 c 3.31,-11.75 5.743,-23.08 5.997,-33.303 v 0 C 74.108,5.67 81.696,-4.325 87.759,5.407 v 0 c 6.072,9.734 6.83,7.402 16.431,29.769 v 0 c 12.094,28.164 25.047,27.631 36.907,0 v 0 c 9.6,-22.367 10.366,-20.035 16.43,-29.769 v 0 c 6.073,-9.732 13.654,0.263 14.662,41.317 v 0 c 0.987,40.148 35.676,97.292 24.475,130.176 v 0 c -4.734,13.914 -16.363,19.088 -27.577,20.096 v 0 c -14.116,1.27 -24.007,-5.157 -35.938,-11.583 v 0 c -11.636,-6.265 -25.214,-12.532 -46.545,-11.662 v 0 c 13.728,2.254 26.909,7.008 38.961,13.987 v 0 c -9.475,-0.685 -17.863,1.77 -26.832,5.979 v 0 c -5.523,2.592 -12.617,4.407 -19.801,4.407 v 0 c -12.314,0 -24.896,-5.331 -30.31,-21.224 m 57.868,-37.774 h 13.787 v 14.352 H 106.49 Z m 41.073,-30.691 h 13.78 v 14.346 h -13.78 z M 96.797,77.745 h 13.786 V 92.092 H 96.797 Z" /></g></g></g></g></g></svg>